Hind Jalandhar-Light.ufo
<glyph name="grI" format="1">
  <advance width="815"/>
  <unicode hex="0A07"/>
  <outline>
    <component base="grmI"/>
    <component base="grIri" xOffset="262"/>
    <contour>
      <point x="686" y="635" type="move" name="top.addak"/>
    </contour>
    <contour>
      <point x="686" y="635" type="move" name="top"/>
    </contour>
    <contour>
      <point x="686" y="635" type="move" name="top.bindi"/>
    </contour>
    <contour>
      <point x="686" y="635" type="move" name="top.tippi"/>
    </contour>
  </outline>
</glyph>
<glyph name="grII" format="1">
  <advance width="815"/>
  <unicode hex="0A08"/>
  <outline>
    <component base="grIri"/>
    <component base="grmII" xOffset="553"/>
    <contour>
      <point x="898" y="635" type="move" name="top.addak"/>
    </contour>
    <contour>
      <point x="898" y="635" type="move" name="top"/>
    </contour>
    <contour>
      <point x="898" y="635" type="move" name="top.bindi"/>
    </contour>
    <contour>
      <point x="898" y="635" type="move" name="top.tippi"/>
    </contour>
  </outline>
</glyph>
<glyph name="grEE" format="1">
  <advance width="553"/>
  <unicode hex="0A0F"/>
  <outline>
    <component base="grIri"/>
    <component base="grmEE" xOffset="556"/>
    <contour>
      <point x="559" y="635" type="move" name="top.addak"/>
    </contour>
    <contour>
      <point x="559" y="635" type="move" name="top"/>
    </contour>
    <contour>
      <point x="559" y="635" type="move" name="top.bindi"/>
    </contour>
    <contour>
      <point x="559" y="635" type="move" name="top.tippi"/>
    </contour>
  </outline>
</glyph>
<glyph name="grAI" format="1">
  <advance width="695"/>
  <unicode hex="0A10"/>
  <outline>
    <component base="grA"/>
    <component base="grmAI" xOffset="712"/>
    <contour>
      <point x="725" y="635" type="move" name="top.addak"/>
    </contour>
    <contour>
      <point x="725" y="635" type="move" name="top"/>
    </contour>
    <contour>
      <point x="725" y="635" type="move" name="top.bindi"/>
    </contour>
    <contour>
      <point x="725" y="635" type="move" name="top.tippi"/>
    </contour>
  </outline>
</glyph>
<glyph name="grTTA" format="1">
  <advance width="514"/>
  <unicode hex="0A1F"/>
  <outline>
    <contour>
      <point x="414" y="580" type="line"/>
      <point x="534" y="580" type="line"/>
      <point x="534" y="635" type="line"/>
      <point x="-20" y="635" type="line"/>
      <point x="-20" y="580" type="line"/>
      <point x="352" y="580" type="line"/>
      <point x="352" y="436" type="line"/>
      <point x="274" y="436" type="line" smooth="yes"/>
      <point x="133" y="436"/>
      <point x="45" y="360"/>
      <point x="45" y="228" type="curve" smooth="yes"/>
      <point x="45" y="96"/>
      <point x="144" y="0"/>
      <point x="307" y="0" type="curve" smooth="yes"/>
      <point x="370" y="0"/>
      <point x="426" y="16"/>
      <point x="454" y="31" type="curve"/>
      <point x="454" y="93" type="line"/>
      <point x="423" y="74"/>
      <point x="365" y="57"/>
      <point x="308" y="57" type="curve" smooth="yes"/>
      <point x="189" y="57"/>
      <point x="109" y="128"/>
      <point x="109" y="228" type="curve" smooth="yes"/>
      <point x="109" y="328"/>
      <point x="178" y="379"/>
      <point x="295" y="379" type="curve" smooth="yes"/>
      <point x="414" y="379" type="line"/>
    </contour>
    <contour>
      <point x="282" y="0" type="move" name="bottom"/>
    </contour>
    <contour>
      <point x="383" y="635" type="move" name="top.tippi"/>
    </contour>
    <contour>
      <point x="383" y="635" type="move" name="top.bindi"/>
    </contour>
    <contour>
      <point x="423" y="0" type="move" name="bottom.HAc2"/>
    </contour>
    <contour>
      <point x="282" y="0" type="move" name="bottom.virama"/>
    </contour>
    <contour>
      <point x="383" y="635" type="move" name="top"/>
    </contour>
    <contour>
      <point x="454" y="0" type="move" name="bottom.VAc2"/>
    </contour>
    <contour>
      <point x="383" y="635" type="move" name="top.addak"/>
    </contour>
  </outline>
</glyph>
<glyph name="grTTHA" format="1">
  <advance width="560"/>
  <unicode hex="0A20"/>
  <outline>
    <contour>
      <point x="446" y="122"/>
      <point x="385" y="57"/>
      <point x="280" y="57" type="curve" smooth="yes"/>
      <point x="175" y="57"/>
      <point x="114" y="122"/>
      <point x="114" y="224" type="curve" smooth="yes"/>
      <point x="114" y="334"/>
      <point x="204" y="379"/>
      <point x="280" y="379" type="curve" smooth="yes"/>
      <point x="356" y="379"/>
      <point x="446" y="334"/>
      <point x="446" y="224" type="curve" smooth="yes"/>
    </contour>
    <contour>
      <point x="580" y="580" type="line"/>
      <point x="580" y="635" type="line"/>
      <point x="-20" y="635" type="line"/>
      <point x="-20" y="580" type="line"/>
      <point x="249" y="580" type="line"/>
      <point x="249" y="436" type="line"/>
      <point x="143" y="421"/>
      <point x="50" y="353"/>
      <point x="50" y="224" type="curve" smooth="yes"/>
      <point x="50" y="89"/>
      <point x="140" y="0"/>
      <point x="280" y="0" type="curve" smooth="yes"/>
      <point x="420" y="0"/>
      <point x="510" y="89"/>
      <point x="510" y="224" type="curve" smooth="yes"/>
      <point x="510" y="353"/>
      <point x="417" y="421"/>
      <point x="311" y="436" type="curve"/>
      <point x="311" y="580" type="line"/>
    </contour>
    <contour>
      <point x="280" y="0" type="move" name="bottom"/>
    </contour>
    <contour>
      <point x="280" y="635" type="move" name="top.tippi"/>
    </contour>
    <contour>
      <point x="280" y="635" type="move" name="top.bindi"/>
    </contour>
    <contour>
      <point x="360" y="0" type="move" name="bottom.HAc2"/>
    </contour>
    <contour>
      <point x="280" y="0" type="move" name="bottom.virama"/>
    </contour>
    <contour>
      <point x="280" y="635" type="move" name="top"/>
    </contour>
    <contour>
      <point x="374" y="0" type="move" name="bottom.VAc2"/>
    </contour>
    <contour>
      <point x="280" y="635" type="move" name="top.addak"/>
    </contour>
  </outline>
</glyph>
<glyph name="grDDHA" format="1">
  <advance width="547"/>
  <unicode hex="0A22"/>
  <outline>
    <contour>
      <point x="-20" y="635" type="line"/>
      <point x="-20" y="580" type="line"/>
      <point x="406" y="580" type="line"/>
      <point x="406" y="465" type="line" smooth="yes"/>
      <point x="406" y="401"/>
      <point x="399" y="363"/>
      <point x="285" y="363" type="curve" smooth="yes"/>
      <point x="97" y="363" type="line"/>
      <point x="97" y="308" type="line"/>
      <point x="301" y="308" type="line" smooth="yes"/>
      <point x="420" y="308"/>
      <point x="468" y="359"/>
      <point x="468" y="458" type="curve" smooth="yes"/>
      <point x="468" y="580" type="line"/>
      <point x="567" y="580" type="line"/>
      <point x="567" y="635" type="line"/>
    </contour>
    <contour>
      <point x="87" y="435" type="line"/>
      <point x="67" y="414"/>
      <point x="40" y="377"/>
      <point x="40" y="353" type="curve" smooth="yes"/>
      <point x="40" y="325"/>
      <point x="58" y="308"/>
      <point x="86" y="308" type="curve" smooth="yes"/>
      <point x="151" y="308" type="line"/>
      <point x="140" y="435" type="line"/>
    </contour>
    <contour>
      <point x="97" y="247" type="line" smooth="yes"/>
      <point x="110" y="112"/>
      <point x="200" y="-11"/>
      <point x="332" y="-11" type="curve" smooth="yes"/>
      <point x="419" y="-11"/>
      <point x="486" y="38"/>
      <point x="486" y="118" type="curve" smooth="yes"/>
      <point x="486" y="198"/>
      <point x="409" y="239"/>
      <point x="328" y="239" type="curve" smooth="yes"/>
      <point x="246" y="239"/>
      <point x="175" y="189"/>
      <point x="140" y="128" type="curve"/>
      <point x="188" y="95" type="line"/>
      <point x="214" y="141"/>
      <point x="269" y="182"/>
      <point x="328" y="182" type="curve" smooth="yes"/>
      <point x="384" y="182"/>
      <point x="424" y="157"/>
      <point x="424" y="116" type="curve" smooth="yes"/>
      <point x="424" y="75"/>
      <point x="392" y="46"/>
      <point x="332" y="46" type="curve" smooth="yes"/>
      <point x="231" y="46"/>
      <point x="164" y="145"/>
      <point x="155" y="261" type="curve" smooth="yes"/>
      <point x="149" y="339" type="line"/>
      <point x="88" y="339" type="line"/>
    </contour>
    <contour>
      <point x="309" y="-11" type="move" name="bottom"/>
    </contour>
    <contour>
      <point x="437" y="635" type="move" name="top.tippi"/>
    </contour>
    <contour>
      <point x="437" y="635" type="move" name="top.bindi"/>
    </contour>
    <contour>
      <point x="444" y="-21" type="move" name="bottom.HAc2"/>
    </contour>
    <contour>
      <point x="322" y="-11" type="move" name="bottom.virama"/>
    </contour>
    <contour>
      <point x="437" y="635" type="move" name="top"/>
    </contour>
    <contour>
      <point x="475" y="-20" type="move" name="bottom.VAc2"/>
    </contour>
    <contour>
      <point x="437" y="635" type="move" name="top.addak"/>
    </contour>
  </outline>
</glyph>
<glyph name="grDA" format="1">
  <advance width="534"/>
  <unicode hex="0A26"/>
  <outline>
    <contour>
      <point x="554" y="635" type="line"/>
      <point x="-20" y="635" type="line"/>
      <point x="-20" y="580" type="line"/>
      <point x="372" y="580" type="line"/>
      <point x="372" y="455" type="line" smooth="yes"/>
      <point x="372" y="391"/>
      <point x="355" y="353"/>
      <point x="261" y="353" type="curve" smooth="yes"/>
      <point x="87" y="353" type="line"/>
      <point x="87" y="298" type="line"/>
      <point x="267" y="298" type="line" smooth="yes"/>
      <point x="386" y="298"/>
      <point x="434" y="349"/>
      <point x="434" y="448" type="curve" smooth="yes"/>
      <point x="434" y="580" type="line"/>
      <point x="554" y="580" type="line"/>
    </contour>
    <contour>
      <point x="81" y="427" type="line"/>
      <point x="60" y="406"/>
      <point x="36" y="369"/>
      <point x="36" y="343" type="curve" smooth="yes"/>
      <point x="36" y="315"/>
      <point x="54" y="298"/>
      <point x="82" y="298" type="curve" smooth="yes"/>
      <point x="151" y="298" type="line"/>
      <point x="138" y="427" type="line"/>
    </contour>
    <contour>
      <point x="401" y="65"/>
      <point x="358" y="45"/>
      <point x="305" y="45" type="curve" smooth="yes"/>
      <point x="197" y="45"/>
      <point x="161" y="126"/>
      <point x="151" y="262" type="curve" smooth="yes"/>
      <point x="148" y="303" type="line"/>
      <point x="87" y="303" type="line"/>
      <point x="93" y="237" type="line" smooth="yes"/>
      <point x="108" y="69"/>
      <point x="181" y="-10"/>
      <point x="303" y="-10" type="curve" smooth="yes"/>
      <point x="360" y="-10"/>
      <point x="409" y="12"/>
      <point x="434" y="31" type="curve"/>
      <point x="434" y="92" type="line"/>
    </contour>
    <contour>
      <point x="282" y="-10" type="move" name="bottom"/>
    </contour>
    <contour>
      <point x="403" y="635" type="move" name="top.tippi"/>
    </contour>
    <contour>
      <point x="403" y="635" type="move" name="top.bindi"/>
    </contour>
    <contour>
      <point x="403" y="-25" type="move" name="bottom.HAc2"/>
    </contour>
    <contour>
      <point x="293" y="-10" type="move" name="bottom.virama"/>
    </contour>
    <contour>
      <point x="403" y="635" type="move" name="top"/>
    </contour>
    <contour>
      <point x="434" y="-25" type="move" name="bottom.VAc2"/>
    </contour>
    <contour>
      <point x="403" y="635" type="move" name="top.addak"/>
    </contour>
  </outline>
</glyph>
<glyph name="grPA" format="1">
  <advance width="588"/>
  <unicode hex="0A2A"/>
  <outline>
    <contour>
      <point x="88" y="580"/>
      <point x="125" y="541"/>
      <point x="125" y="487" type="curve" smooth="yes"/>
      <point x="125" y="442"/>
      <point x="104" y="396"/>
      <point x="60" y="354" type="curve"/>
      <point x="75" y="230"/>
      <point x="157" y="143"/>
      <point x="278" y="143" type="curve" smooth="yes"/>
      <point x="348" y="143"/>
      <point x="403" y="173"/>
      <point x="426" y="207" type="curve"/>
      <point x="426" y="339" type="line"/>
      <point x="426" y="258"/>
      <point x="376" y="200"/>
      <point x="278" y="200" type="curve" smooth="yes"/>
      <point x="188" y="200"/>
      <point x="132" y="270"/>
      <point x="126" y="342" type="curve"/>
      <point x="171" y="393"/>
      <point x="189" y="430"/>
      <point x="189" y="487" type="curve" smooth="yes"/>
      <point x="189" y="546"/>
      <point x="148" y="635"/>
      <point x="52" y="635" type="curve" smooth="yes"/>
      <point x="-20" y="635" type="line"/>
      <point x="-20" y="580" type="line"/>
      <point x="43" y="580" type="line" smooth="yes"/>
    </contour>
    <contour>
      <point x="426" y="590" type="line"/>
      <point x="426" y="0" type="line"/>
      <point x="488" y="0" type="line"/>
      <point x="488" y="590" type="line"/>
    </contour>
    <contour>
      <point x="608" y="635" type="line"/>
      <point x="426" y="635" type="line"/>
      <point x="426" y="580" type="line"/>
      <point x="608" y="580" type="line"/>
    </contour>
    <contour>
      <point x="304" y="0" type="move" name="bottom"/>
    </contour>
    <contour>
      <point x="457" y="635" type="move" name="top.tippi"/>
    </contour>
    <contour>
      <point x="457" y="635" type="move" name="top.bindi"/>
    </contour>
    <contour>
      <point x="457" y="0" type="move" name="bottom.HAc2"/>
    </contour>
    <contour>
      <point x="457" y="0" type="move" name="bottom.virama"/>
    </contour>
    <contour>
      <point x="457" y="635" type="move" name="top"/>
    </contour>
    <contour>
      <point x="488" y="0" type="move" name="bottom.VAc2"/>
    </contour>
    <contour>
      <point x="457" y="635" type="move" name="top.addak"/>
    </contour>
  </outline>
</glyph>
<glyph name="grBA" format="1">
  <advance width="595"/>
  <unicode hex="0A2C"/>
  <outline>
    <contour>
      <point x="615" y="580" type="line"/>
      <point x="615" y="635" type="line"/>
      <point x="-20" y="635" type="line"/>
      <point x="-20" y="580" type="line"/>
    </contour>
    <contour>
      <point x="433" y="600" type="line"/>
      <point x="433" y="0" type="line"/>
      <point x="495" y="0" type="line"/>
      <point x="495" y="600" type="line"/>
    </contour>
    <contour>
      <point x="163" y="118"/>
      <point x="99" y="193"/>
      <point x="99" y="226" type="curve" smooth="yes"/>
      <point x="99" y="263"/>
      <point x="151" y="332"/>
      <point x="265" y="332" type="curve" smooth="yes"/>
      <point x="455" y="332" type="line"/>
      <point x="455" y="387" type="line"/>
      <point x="265" y="387" type="line" smooth="yes"/>
      <point x="166" y="387"/>
      <point x="124" y="450"/>
      <point x="124" y="502" type="curve" smooth="yes"/>
      <point x="124" y="555"/>
      <point x="149" y="587"/>
      <point x="181" y="606" type="curve"/>
      <point x="109" y="606" type="line"/>
      <point x="91" y="591"/>
      <point x="60" y="564"/>
      <point x="60" y="502" type="curve" smooth="yes"/>
      <point x="60" y="420"/>
      <point x="110" y="376"/>
      <point x="185" y="347" type="curve"/>
      <point x="191" y="370" type="line"/>
      <point x="99" y="353"/>
      <point x="35" y="279"/>
      <point x="35" y="226" type="curve" smooth="yes"/>
      <point x="35" y="170"/>
      <point x="118" y="61"/>
      <point x="288" y="61" type="curve" smooth="yes"/>
      <point x="366" y="61"/>
      <point x="431" y="85"/>
      <point x="474" y="111" type="curve"/>
      <point x="474" y="173" type="line"/>
      <point x="415" y="136"/>
      <point x="363" y="118"/>
      <point x="289" y="118" type="curve" smooth="yes"/>
    </contour>
    <contour>
      <point x="311" y="0" type="move" name="bottom"/>
    </contour>
    <contour>
      <point x="464" y="635" type="move" name="top.tippi"/>
    </contour>
    <contour>
      <point x="464" y="635" type="move" name="top.bindi"/>
    </contour>
    <contour>
      <point x="464" y="0" type="move" name="bottom.HAc2"/>
    </contour>
    <contour>
      <point x="464" y="0" type="move" name="bottom.virama"/>
    </contour>
    <contour>
      <point x="464" y="635" type="move" name="top"/>
    </contour>
    <contour>
      <point x="495" y="0" type="move" name="bottom.VAc2"/>
    </contour>
    <contour>
      <point x="464" y="635" type="move" name="top.addak"/>
    </contour>
  </outline>
</glyph>
<glyph name="grMA" format="1">
  <advance width="552"/>
  <unicode hex="0A2E"/>
  <outline>
    <contour>
      <point x="390" y="580" type="line"/>
      <point x="572" y="580" type="line"/>
      <point x="572" y="635" type="line"/>
      <point x="390" y="635" type="line"/>
    </contour>
    <contour>
      <point x="452" y="0" type="line"/>
      <point x="452" y="589" type="line"/>
      <point x="390" y="589" type="line"/>
      <point x="390" y="0" type="line"/>
    </contour>
    <contour>
      <point x="410" y="295" type="line"/>
      <point x="410" y="350" type="line"/>
      <point x="157" y="350" type="line"/>
      <point x="157" y="295" type="line"/>
    </contour>
    <contour>
      <point x="104" y="146" type="line"/>
      <point x="142" y="217"/>
      <point x="168" y="291"/>
      <point x="168" y="379" type="curve" smooth="yes"/>
      <point x="168" y="486"/>
      <point x="127" y="578"/>
      <point x="96" y="635" type="curve"/>
      <point x="42" y="602" type="line"/>
      <point x="83" y="543"/>
      <point x="104" y="461"/>
      <point x="104" y="379" type="curve" smooth="yes"/>
      <point x="104" y="301"/>
      <point x="75" y="214"/>
      <point x="41" y="146" type="curve"/>
    </contour>
    <contour>
      <point x="96" y="635" type="line"/>
      <point x="-20" y="635" type="line"/>
      <point x="-20" y="580" type="line"/>
      <point x="96" y="580" type="line"/>
    </contour>
    <contour>
      <point x="267" y="0" type="move" name="bottom"/>
    </contour>
    <contour>
      <point x="421" y="635" type="move" name="top.tippi"/>
    </contour>
    <contour>
      <point x="421" y="635" type="move" name="top.bindi"/>
    </contour>
    <contour>
      <point x="421" y="0" type="move" name="bottom.HAc2"/>
    </contour>
    <contour>
      <point x="421" y="0" type="move" name="bottom.virama"/>
    </contour>
    <contour>
      <point x="421" y="635" type="move" name="top"/>
    </contour>
    <contour>
      <point x="452" y="0" type="move" name="bottom.VAc2"/>
    </contour>
    <contour>
      <point x="421" y="635" type="move" name="top.addak"/>
    </contour>
  </outline>
</glyph>
<glyph name="grLA" format="1">
  <advance width="652"/>
  <unicode hex="0A32"/>
  <outline>
    <contour>
      <point x="129" y="448"/>
      <point x="184" y="342"/>
      <point x="300" y="241" type="curve"/>
      <point x="352" y="241" type="line"/>
      <point x="468" y="342"/>
      <point x="523" y="448"/>
      <point x="523" y="598" type="curve"/>
      <point x="463" y="598" type="line"/>
      <point x="463" y="444"/>
      <point x="401" y="357"/>
      <point x="302" y="276" type="curve"/>
      <point x="351" y="276" type="line"/>
      <point x="249" y="357"/>
      <point x="189" y="444"/>
      <point x="189" y="596" type="curve"/>
      <point x="129" y="596" type="line"/>
    </contour>
    <contour>
      <point x="117" y="372"/>
      <point x="50" y="298"/>
      <point x="50" y="191" type="curve" smooth="yes"/>
      <point x="50" y="101"/>
      <point x="100" y="38"/>
      <point x="134" y="0" type="curve"/>
      <point x="209" y="0" type="line"/>
      <point x="170" y="42"/>
      <point x="114" y="107"/>
      <point x="114" y="191" type="curve" smooth="yes"/>
      <point x="114" y="276"/>
      <point x="165" y="328"/>
      <point x="230" y="343" type="curve"/>
      <point x="209" y="396" type="line"/>
    </contour>
    <contour>
      <point x="422" y="343" type="line"/>
      <point x="487" y="328"/>
      <point x="538" y="276"/>
      <point x="538" y="191" type="curve" smooth="yes"/>
      <point x="538" y="107"/>
      <point x="482" y="42"/>
      <point x="443" y="0" type="curve"/>
      <point x="518" y="0" type="line"/>
      <point x="552" y="38"/>
      <point x="602" y="101"/>
      <point x="602" y="191" type="curve" smooth="yes"/>
      <point x="602" y="298"/>
      <point x="535" y="372"/>
      <point x="443" y="396" type="curve"/>
    </contour>
    <contour>
      <point x="672" y="580" type="line"/>
      <point x="672" y="635" type="line"/>
      <point x="-20" y="635" type="line"/>
      <point x="-20" y="580" type="line"/>
    </contour>
    <contour>
      <point x="326" y="0" type="move" name="bottom"/>
    </contour>
    <contour>
      <point x="326" y="635" type="move" name="top.tippi"/>
    </contour>
    <contour>
      <point x="326" y="635" type="move" name="top.bindi"/>
    </contour>
    <contour>
      <point x="487" y="-25" type="move" name="bottom.HAc2"/>
    </contour>
    <contour>
      <point x="326" y="0" type="move" name="bottom.virama"/>
    </contour>
    <contour>
      <point x="493" y="635" type="move" name="top"/>
    </contour>
    <contour>
      <point x="518" y="-25" type="move" name="bottom.VAc2"/>
    </contour>
    <contour>
      <point x="326" y="635" type="move" name="top.addak"/>
    </contour>
  </outline>
</glyph>
<glyph name="grHA" format="1">
  <advance width="484"/>
  <unicode hex="0A39"/>
  <outline>
    <contour>
      <point x="-20" y="635" type="line"/>
      <point x="-20" y="580" type="line"/>
      <point x="504" y="580" type="line"/>
      <point x="504" y="635" type="line"/>
    </contour>
    <contour>
      <point x="235" y="391" type="line"/>
      <point x="110" y="397"/>
      <point x="40" y="341"/>
      <point x="40" y="223" type="curve" smooth="yes"/>
      <point x="40" y="96"/>
      <point x="143" y="0"/>
      <point x="264" y="0" type="curve" smooth="yes"/>
      <point x="337" y="0"/>
      <point x="384" y="40"/>
      <point x="384" y="127" type="curve" smooth="yes"/>
      <point x="384" y="600" type="line"/>
      <point x="322" y="600" type="line"/>
      <point x="322" y="121" type="line" smooth="yes"/>
      <point x="322" y="64"/>
      <point x="290" y="57"/>
      <point x="264" y="57" type="curve" smooth="yes"/>
      <point x="172" y="57"/>
      <point x="105" y="127"/>
      <point x="105" y="223" type="curve" smooth="yes"/>
      <point x="105" y="308"/>
      <point x="145" y="343"/>
      <point x="235" y="337" type="curve"/>
    </contour>
    <contour>
      <point x="250" y="0" type="move" name="bottom"/>
    </contour>
    <contour>
      <point x="353" y="635" type="move" name="top.tippi"/>
    </contour>
    <contour>
      <point x="353" y="635" type="move" name="top.bindi"/>
    </contour>
    <contour>
      <point x="353" y="0" type="move" name="bottom.HAc2"/>
    </contour>
    <contour>
      <point x="250" y="0" type="move" name="bottom.virama"/>
    </contour>
    <contour>
      <point x="353" y="635" type="move" name="top"/>
    </contour>
    <contour>
      <point x="384" y="0" type="move" name="bottom.VAc2"/>
    </contour>
    <contour>
      <point x="353" y="635" type="move" name="top.addak"/>
    </contour>
  </outline>
</glyph>
<glyph name="grNukta" format="1">
  <advance width="0"/>
  <unicode hex="0A3C"/>
  <outline>
    <contour>
      <point x="39" y="0"/>
      <point x="20" y="-21"/>
      <point x="20" y="-47" type="curve" smooth="yes"/>
      <point x="20" y="-74"/>
      <point x="39" y="-94"/>
      <point x="66" y="-94" type="curve" smooth="yes"/>
      <point x="93" y="-94"/>
      <point x="114" y="-74"/>
      <point x="114" y="-47" type="curve" smooth="yes"/>
      <point x="114" y="-21"/>
      <point x="93" y="0"/>
      <point x="66" y="0" type="curve" smooth="yes"/>
    </contour>
    <contour>
      <point x="66" y="0" type="move" name="_bottom"/>
    </contour>
  </outline>
</glyph>
<glyph name="grmI" format="1">
  <advance width="262"/>
  <unicode hex="0A3F"/>
  <outline>
    <contour>
      <point x="-20" y="580" type="line"/>
      <point x="100" y="580" type="line"/>
      <point x="100" y="0" type="line"/>
      <point x="162" y="0" type="line"/>
      <point x="162" y="580" type="line"/>
      <point x="282" y="580" type="line"/>
      <point x="282" y="635" type="line"/>
      <point x="-20" y="635" type="line"/>
    </contour>
    <contour>
      <point x="162" y="725" type="line" smooth="yes"/>
      <point x="162" y="797"/>
      <point x="209" y="831"/>
      <point x="269" y="831" type="curve" smooth="yes"/>
      <point x="329" y="831"/>
      <point x="376" y="798"/>
      <point x="376" y="725" type="curve" smooth="yes"/>
      <point x="376" y="688" type="line"/>
      <point x="438" y="688" type="line"/>
      <point x="438" y="726" type="line" smooth="yes"/>
      <point x="438" y="841"/>
      <point x="359" y="888"/>
      <point x="269" y="888" type="curve" smooth="yes"/>
      <point x="179" y="888"/>
      <point x="100" y="841"/>
      <point x="100" y="726" type="curve" smooth="yes"/>
      <point x="100" y="625" type="line"/>
      <point x="162" y="625" type="line"/>
    </contour>
    <contour>
      <point x="514" y="678" type="move" name="top"/>
    </contour>
  </outline>
</glyph>
<glyph name="grmU" format="1">
  <advance width="0"/>
  <unicode hex="0A41"/>
  <outline>
    <contour>
      <point x="-152" y="-76"/>
      <point x="-218" y="-91"/>
      <point x="-284" y="-91" type="curve" smooth="yes"/>
      <point x="-350" y="-91"/>
      <point x="-416" y="-76"/>
      <point x="-468" y="-53" type="curve"/>
      <point x="-468" y="-111" type="line"/>
      <point x="-408" y="-134"/>
      <point x="-349" y="-146"/>
      <point x="-284" y="-146" type="curve" smooth="yes"/>
      <point x="-219" y="-146"/>
      <point x="-164" y="-136"/>
      <point x="-100" y="-111" type="curve"/>
      <point x="-100" y="-53" type="line"/>
    </contour>
    <contour>
      <point x="-284" y="0" type="move" name="_bottom"/>
    </contour>
  </outline>
</glyph>
<glyph name="grmUU" format="1">
  <advance width="0"/>
  <unicode hex="0A42"/>
  <outline>
    <contour>
      <point x="-152" y="-76"/>
      <point x="-218" y="-91"/>
      <point x="-284" y="-91" type="curve" smooth="yes"/>
      <point x="-350" y="-91"/>
      <point x="-416" y="-76"/>
      <point x="-468" y="-53" type="curve"/>
      <point x="-468" y="-111" type="line"/>
      <point x="-408" y="-134"/>
      <point x="-349" y="-146"/>
      <point x="-284" y="-146" type="curve" smooth="yes"/>
      <point x="-219" y="-146"/>
      <point x="-164" y="-136"/>
      <point x="-100" y="-111" type="curve"/>
      <point x="-100" y="-53" type="line"/>
    </contour>
    <contour>
      <point x="-152" y="-196"/>
      <point x="-218" y="-211"/>
      <point x="-284" y="-211" type="curve" smooth="yes"/>
      <point x="-350" y="-211"/>
      <point x="-416" y="-196"/>
      <point x="-468" y="-173" type="curve"/>
      <point x="-468" y="-231" type="line"/>
      <point x="-408" y="-254"/>
      <point x="-349" y="-266"/>
      <point x="-284" y="-266" type="curve" smooth="yes"/>
      <point x="-219" y="-266"/>
      <point x="-164" y="-256"/>
      <point x="-100" y="-231" type="curve"/>
      <point x="-100" y="-173" type="line"/>
    </contour>
    <contour>
      <point x="-284" y="0" type="move" name="_bottom"/>
    </contour>
  </outline>
</glyph>
<glyph name="grmEE" format="1">
  <advance width="0"/>
  <unicode hex="0A47"/>
  <outline>
    <contour>
      <point x="-401" y="816" type="line"/>
      <point x="-401" y="816"/>
      <point x="-379" y="822"/>
      <point x="-355" y="822" type="curve" smooth="yes"/>
      <point x="-312" y="822"/>
      <point x="-287" y="807"/>
      <point x="-260" y="766" type="curve" smooth="yes"/>
      <point x="-158" y="610" type="line"/>
      <point x="-90" y="610" type="line"/>
      <point x="-207" y="788" type="line" smooth="yes"/>
      <point x="-247" y="849"/>
      <point x="-288" y="877"/>
      <point x="-353" y="877" type="curve" smooth="yes"/>
      <point x="-379" y="877"/>
      <point x="-401" y="871"/>
      <point x="-401" y="871" type="curve"/>
    </contour>
    <contour>
      <point x="-135" y="635" type="move" name="_top"/>
    </contour>
  </outline>
</glyph>
<glyph name="grmAI" format="1">
  <advance width="0"/>
  <unicode hex="0A48"/>
  <outline>
    <contour>
      <point x="-193" y="788" type="line" smooth="yes"/>
      <point x="-233" y="849"/>
      <point x="-283" y="877"/>
      <point x="-352" y="877" type="curve" smooth="yes"/>
      <point x="-378" y="877"/>
      <point x="-407" y="871"/>
      <point x="-407" y="871" type="curve"/>
      <point x="-407" y="813" type="line"/>
      <point x="-407" y="813"/>
      <point x="-378" y="819"/>
      <point x="-354" y="819" type="curve" smooth="yes"/>
      <point x="-304" y="819"/>
      <point x="-263" y="803"/>
      <point x="-235" y="766" type="curve" smooth="yes"/>
      <point x="-142" y="640" type="line"/>
      <point x="-138" y="641" type="line"/>
      <point x="-230" y="721" type="line" smooth="yes"/>
      <point x="-262" y="748"/>
      <point x="-301" y="772"/>
      <point x="-355" y="772" type="curve" smooth="yes"/>
      <point x="-381" y="772"/>
      <point x="-408" y="765"/>
      <point x="-408" y="765" type="curve"/>
      <point x="-408" y="707" type="line"/>
      <point x="-408" y="707"/>
      <point x="-373" y="712"/>
      <point x="-349" y="712" type="curve" smooth="yes"/>
      <point x="-285" y="712"/>
      <point x="-236" y="678"/>
      <point x="-159" y="611" type="curve"/>
      <point x="-77" y="611" type="line"/>
    </contour>
    <contour>
      <point x="-132" y="635" type="move" name="_top"/>
    </contour>
  </outline>
</glyph>
<glyph name="grmOO" format="1">
  <advance width="0"/>
  <unicode hex="0A4B"/>
  <outline>
    <contour>
      <point x="-100" y="689" type="line"/>
      <point x="-100" y="724" type="line" smooth="yes"/>
      <point x="-100" y="814"/>
      <point x="-146" y="868"/>
      <point x="-233" y="868" type="curve" smooth="yes"/>
      <point x="-314" y="868"/>
      <point x="-352" y="802"/>
      <point x="-419" y="802" type="curve" smooth="yes"/>
      <point x="-469" y="802"/>
      <point x="-494" y="835"/>
      <point x="-484" y="888" type="curve"/>
      <point x="-546" y="888" type="line"/>
      <point x="-559" y="811"/>
      <point x="-506" y="747"/>
      <point x="-419" y="747" type="curve" smooth="yes"/>
      <point x="-323" y="747"/>
      <point x="-294" y="813"/>
      <point x="-233" y="813" type="curve" smooth="yes"/>
      <point x="-178" y="813"/>
      <point x="-162" y="777"/>
      <point x="-162" y="725" type="curve" smooth="yes"/>
      <point x="-162" y="689" type="line"/>
    </contour>
    <contour>
      <point x="-131" y="635" type="move" name="_top"/>
    </contour>
  </outline>
</glyph>
<glyph name="grmAU" format="1">
  <advance width="0"/>
  <unicode hex="0A4C"/>
  <outline>
    <contour>
      <point x="-477" y="888" type="line"/>
      <point x="-485" y="815"/>
      <point x="-426" y="755"/>
      <point x="-334" y="755" type="curve" smooth="yes"/>
      <point x="-296" y="755"/>
      <point x="-271" y="765"/>
      <point x="-250" y="775" type="curve"/>
      <point x="-256" y="742"/>
      <point x="-245" y="709"/>
      <point x="-222" y="689" type="curve"/>
      <point x="-160" y="689" type="line"/>
      <point x="-180" y="715"/>
      <point x="-190" y="733"/>
      <point x="-190" y="758" type="curve" smooth="yes"/>
      <point x="-190" y="792"/>
      <point x="-168" y="821"/>
      <point x="-128" y="821" type="curve" smooth="yes"/>
      <point x="-88" y="821"/>
      <point x="-66" y="792"/>
      <point x="-66" y="758" type="curve" smooth="yes"/>
      <point x="-66" y="733"/>
      <point x="-76" y="715"/>
      <point x="-96" y="689" type="curve"/>
      <point x="-34" y="689" type="line"/>
      <point x="-16" y="709"/>
      <point x="-4" y="734"/>
      <point x="-4" y="759" type="curve" smooth="yes"/>
      <point x="-4" y="833"/>
      <point x="-52" y="876"/>
      <point x="-128" y="876" type="curve" smooth="yes"/>
      <point x="-214" y="876"/>
      <point x="-248" y="810"/>
      <point x="-334" y="810" type="curve" smooth="yes"/>
      <point x="-394" y="810"/>
      <point x="-421" y="840"/>
      <point x="-415" y="888" type="curve"/>
    </contour>
    <contour>
      <point x="-128" y="635" type="move" name="_top"/>
    </contour>
  </outline>
</glyph>
<glyph name="grVirama" format="1">
  <advance width="0"/>
  <unicode hex="0A4D"/>
  <outline>
    <contour>
      <point x="40" y="-231" type="line"/>
      <point x="-99" y="-69" type="line"/>
      <point x="-162" y="-69" type="line"/>
      <point x="-38" y="-231" type="line"/>
    </contour>
    <contour>
      <point x="-131" y="0" type="move" name="_bottom.virama"/>
    </contour>
  </outline>
</glyph>
<glyph name="grYakash" format="1">
  <advance width="0"/>
  <unicode hex="0A51"/>
  <outline>
    <contour>
      <point x="179" y="-50" type="line" smooth="yes"/>
      <point x="197" y="-165"/>
      <point x="266" y="-217"/>
      <point x="380" y="-192" type="curve"/>
      <point x="380" y="-137" type="line"/>
      <point x="287" y="-158"/>
      <point x="251" y="-128"/>
      <point x="239" y="-46" type="curve" smooth="yes"/>
      <point x="232" y="0" type="line"/>
      <point x="171" y="0" type="line"/>
    </contour>
    <contour>
      <point x="202" y="0" type="move" name="_bottom"/>
    </contour>
  </outline>
</glyph>
<glyph name="grJxA" format="1">
  <advance width="547"/>
  <unicode hex="0A5B"/>
  <outline>
    <contour>
      <point x="-20" y="635" type="line"/>
      <point x="-20" y="580" type="line"/>
      <point x="385" y="580" type="line"/>
      <point x="385" y="353" type="line"/>
      <point x="97" y="353" type="line"/>
      <point x="97" y="298" type="line"/>
      <point x="385" y="298" type="line"/>
      <point x="385" y="0" type="line"/>
      <point x="447" y="0" type="line"/>
      <point x="447" y="580" type="line"/>
      <point x="567" y="580" type="line"/>
      <point x="567" y="635" type="line"/>
    </contour>
    <contour>
      <point x="68" y="404"/>
      <point x="41" y="367"/>
      <point x="41" y="343" type="curve" smooth="yes"/>
      <point x="41" y="314"/>
      <point x="59" y="298"/>
      <point x="90" y="298" type="curve"/>
      <point x="90" y="0" type="line"/>
      <point x="152" y="0" type="line"/>
      <point x="152" y="425" type="line"/>
      <point x="88" y="425" type="line"/>
    </contour>
    <component base="grNukta" xOffset="194" yOffset="21"/>
    <contour>
      <point x="272" y="0" type="move" name="bottom"/>
    </contour>
    <contour>
      <point x="416" y="635" type="move" name="top.tippi"/>
    </contour>
    <contour>
      <point x="416" y="-94" type="move" name="bottom.HAc2"/>
    </contour>
    <contour>
      <point x="416" y="0" type="move" name="bottom.virama"/>
    </contour>
    <contour>
      <point x="416" y="635" type="move" name="top"/>
    </contour>
    <contour>
      <point x="447" y="-94" type="move" name="bottom.VAc2"/>
    </contour>
    <contour>
      <point x="416" y="635" type="move" name="top.addak"/>
    </contour>
  </outline>
</glyph>
<glyph name="grRRA" format="1">
  <advance width="509"/>
  <unicode hex="0A5C"/>
  <outline>
    <contour>
      <point x="-20" y="580" type="line"/>
      <point x="-20" y="635" type="line"/>
      <point x="529" y="635" type="line"/>
      <point x="529" y="580" type="line"/>
    </contour>
    <contour>
      <point x="397" y="564"/>
      <point x="426" y="536"/>
      <point x="426" y="482" type="curve" smooth="yes"/>
      <point x="426" y="408"/>
      <point x="378" y="353"/>
      <point x="319" y="335" type="curve"/>
      <point x="171" y="338" type="line"/>
      <point x="171" y="372" type="line"/>
      <point x="241" y="372" type="line" smooth="yes"/>
      <point x="337" y="372"/>
      <point x="364" y="422"/>
      <point x="364" y="481" type="curve" smooth="yes"/>
      <point x="364" y="528"/>
      <point x="338" y="561"/>
      <point x="310" y="580" type="curve"/>
      <point x="382" y="580" type="line"/>
    </contour>
    <contour>
      <point x="392" y="341"/>
      <point x="459" y="294"/>
      <point x="459" y="195" type="curve" smooth="yes"/>
      <point x="459" y="97"/>
      <point x="382" y="17"/>
      <point x="241" y="17" type="curve" smooth="yes"/>
      <point x="149" y="17"/>
      <point x="76" y="65"/>
      <point x="30" y="92" type="curve"/>
      <point x="30" y="141" type="line"/>
      <point x="86" y="105"/>
      <point x="168" y="72"/>
      <point x="241" y="72" type="curve" smooth="yes"/>
      <point x="348" y="72"/>
      <point x="397" y="122"/>
      <point x="397" y="198" type="curve" smooth="yes"/>
      <point x="397" y="280"/>
      <point x="337" y="317"/>
      <point x="238" y="317" type="curve" smooth="yes"/>
      <point x="171" y="317" type="line"/>
      <point x="171" y="353" type="line"/>
      <point x="319" y="355" type="line"/>
    </contour>
    <contour>
      <point x="216" y="-92" type="line"/>
      <point x="30" y="87" type="line"/>
      <point x="30" y="102" type="line"/>
      <point x="129" y="64" type="line"/>
      <point x="293" y="-92" type="line"/>
    </contour>
    <contour>
      <point x="405" y="-92" type="line"/>
      <point x="249" y="47" type="line"/>
      <point x="317" y="60" type="line"/>
      <point x="483" y="-92" type="line"/>
    </contour>
    <contour>
      <point x="255" y="-92" type="move" name="bottom"/>
    </contour>
    <contour>
      <point x="321" y="635" type="move" name="top.tippi"/>
    </contour>
    <contour>
      <point x="321" y="635" type="move" name="top.bindi"/>
    </contour>
    <contour>
      <point x="452" y="-109" type="move" name="bottom.HAc2"/>
    </contour>
    <contour>
      <point x="278" y="-92" type="move" name="bottom.virama"/>
    </contour>
    <contour>
      <point x="321" y="635" type="move" name="top"/>
    </contour>
    <contour>
      <point x="483" y="-109" type="move" name="bottom.VAc2"/>
    </contour>
    <contour>
      <point x="321" y="635" type="move" name="top.addak"/>
    </contour>
  </outline>
</glyph>
<glyph name="grZero" format="1">
  <advance width="537"/>
  <unicode hex="0A66"/>
  <outline>
    <contour>
      <point x="40" y="185"/>
      <point x="132" y="79"/>
      <point x="269" y="79" type="curve" smooth="yes"/>
      <point x="405" y="79"/>
      <point x="497" y="185"/>
      <point x="497" y="317" type="curve" smooth="yes"/>
      <point x="497" y="449"/>
      <point x="405" y="556"/>
      <point x="269" y="556" type="curve" smooth="yes"/>
      <point x="132" y="556"/>
      <point x="40" y="449"/>
      <point x="40" y="317" type="curve" smooth="yes"/>
    </contour>
    <contour>
      <point x="104" y="419"/>
      <point x="168" y="499"/>
      <point x="269" y="499" type="curve" smooth="yes"/>
      <point x="371" y="499"/>
      <point x="433" y="419"/>
      <point x="433" y="317" type="curve" smooth="yes"/>
      <point x="433" y="216"/>
      <point x="371" y="136"/>
      <point x="269" y="136" type="curve" smooth="yes"/>
      <point x="168" y="136"/>
      <point x="104" y="216"/>
      <point x="104" y="317" type="curve" smooth="yes"/>
    </contour>
  </outline>
</glyph>
<glyph name="grOne" format="1">
  <advance width="563"/>
  <unicode hex="0A67"/>
  <outline>
    <contour>
      <point x="401" y="150" type="line" smooth="yes"/>
      <point x="401" y="50"/>
      <point x="441" y="-5"/>
      <point x="548" y="-5" type="curve"/>
      <point x="548" y="52" type="line"/>
      <point x="469" y="52"/>
      <point x="463" y="85"/>
      <point x="463" y="168" type="curve" smooth="yes"/>
      <point x="463" y="435" type="line" smooth="yes"/>
      <point x="463" y="561"/>
      <point x="369" y="640"/>
      <point x="257" y="640" type="curve" smooth="yes"/>
      <point x="146" y="640"/>
      <point x="45" y="560"/>
      <point x="45" y="440" type="curve" smooth="yes"/>
      <point x="45" y="314"/>
      <point x="146" y="240"/>
      <point x="257" y="240" type="curve" smooth="yes"/>
      <point x="338" y="240"/>
      <point x="387" y="281"/>
      <point x="401" y="306" type="curve"/>
      <point x="401" y="440" type="line"/>
      <point x="401" y="355"/>
      <point x="341" y="297"/>
      <point x="257" y="297" type="curve" smooth="yes"/>
      <point x="169" y="297"/>
      <point x="109" y="355"/>
      <point x="109" y="440" type="curve" smooth="yes"/>
      <point x="109" y="524"/>
      <point x="175" y="583"/>
      <point x="257" y="583" type="curve" smooth="yes"/>
      <point x="339" y="583"/>
      <point x="401" y="523"/>
      <point x="401" y="440" type="curve" smooth="yes"/>
    </contour>
  </outline>
</glyph>
<glyph name="grThree" format="1">
  <advance width="516"/>
  <unicode hex="0A69"/>
  <outline>
    <contour>
      <point x="380" y="643"/>
      <point x="433" y="544"/>
      <point x="433" y="474" type="curve" smooth="yes"/>
      <point x="433" y="402"/>
      <point x="385" y="343"/>
      <point x="326" y="325" type="curve"/>
      <point x="158" y="328" type="line"/>
      <point x="158" y="360" type="line"/>
      <point x="248" y="360" type="line" smooth="yes"/>
      <point x="342" y="360"/>
      <point x="369" y="421"/>
      <point x="369" y="473" type="curve" smooth="yes"/>
      <point x="369" y="530"/>
      <point x="333" y="586"/>
      <point x="234" y="586" type="curve" smooth="yes"/>
      <point x="192" y="586"/>
      <point x="145" y="575"/>
      <point x="98" y="555" type="curve"/>
      <point x="98" y="612" type="line"/>
      <point x="144" y="632"/>
      <point x="179" y="643"/>
      <point x="235" y="643" type="curve" smooth="yes"/>
    </contour>
    <contour>
      <point x="379" y="325"/>
      <point x="446" y="275"/>
      <point x="446" y="173" type="curve" smooth="yes"/>
      <point x="446" y="70"/>
      <point x="369" y="-11"/>
      <point x="228" y="-11" type="curve" smooth="yes"/>
      <point x="169" y="-11"/>
      <point x="30" y="20"/>
      <point x="30" y="95" type="curve"/>
      <point x="69" y="109" type="line"/>
      <point x="93" y="52"/>
      <point x="169" y="46"/>
      <point x="227" y="46" type="curve" smooth="yes"/>
      <point x="314" y="46"/>
      <point x="382" y="85"/>
      <point x="382" y="176" type="curve" smooth="yes"/>
      <point x="382" y="261"/>
      <point x="324" y="305"/>
      <point x="225" y="305" type="curve" smooth="yes"/>
      <point x="158" y="305" type="line"/>
      <point x="158" y="337" type="line"/>
      <point x="306" y="339" type="line"/>
    </contour>
    <contour>
      <point x="229" y="-165" type="line"/>
      <point x="127" y="30" type="line"/>
      <point x="96" y="30" type="line"/>
      <point x="54" y="40"/>
      <point x="30" y="67"/>
      <point x="30" y="95" type="curve" smooth="yes"/>
      <point x="30" y="125"/>
      <point x="53" y="152"/>
      <point x="70" y="169" type="curve"/>
      <point x="117" y="169" type="line"/>
      <point x="296" y="-165" type="line"/>
    </contour>
  </outline>
</glyph>
<glyph name="grSix" format="1">
  <advance width="496"/>
  <unicode hex="0A6C"/>
  <outline>
    <contour>
      <point x="335" y="581"/>
      <point x="364" y="566"/>
      <point x="405" y="554" type="curve"/>
      <point x="405" y="503" type="line"/>
      <point x="368" y="513"/>
      <point x="334" y="524"/>
      <point x="289" y="524" type="curve" smooth="yes"/>
      <point x="193" y="524"/>
      <point x="144" y="483"/>
      <point x="144" y="421" type="curve" smooth="yes"/>
      <point x="144" y="359"/>
      <point x="200" y="318"/>
      <point x="289" y="318" type="curve" smooth="yes"/>
      <point x="358" y="318" type="line"/>
      <point x="358" y="283" type="line"/>
      <point x="197" y="283" type="line"/>
      <point x="138" y="301"/>
      <point x="80" y="337"/>
      <point x="80" y="422" type="curve" smooth="yes"/>
      <point x="80" y="507"/>
      <point x="149" y="581"/>
      <point x="289" y="581" type="curve" smooth="yes"/>
    </contour>
    <contour>
      <point x="358" y="297" type="line"/>
      <point x="358" y="263" type="line"/>
      <point x="289" y="263" type="line" smooth="yes"/>
      <point x="200" y="263"/>
      <point x="134" y="225"/>
      <point x="134" y="155" type="curve" smooth="yes"/>
      <point x="134" y="85"/>
      <point x="202" y="48"/>
      <point x="289" y="48" type="curve" smooth="yes"/>
      <point x="347" y="48"/>
      <point x="397" y="60"/>
      <point x="441" y="77" type="curve"/>
      <point x="441" y="17" type="line"/>
      <point x="396" y="1"/>
      <point x="347" y="-9"/>
      <point x="288" y="-9" type="curve" smooth="yes"/>
      <point x="147" y="-9"/>
      <point x="70" y="67"/>
      <point x="70" y="155" type="curve" smooth="yes"/>
      <point x="70" y="243"/>
      <point x="134" y="284"/>
      <point x="197" y="297" type="curve"/>
    </contour>
    <contour>
      <point x="440" y="715" type="line"/>
      <point x="419" y="721"/>
      <point x="400" y="727"/>
      <point x="376" y="727" type="curve" smooth="yes"/>
      <point x="329" y="727"/>
      <point x="292" y="699"/>
      <point x="292" y="652" type="curve" smooth="yes"/>
      <point x="292" y="607"/>
      <point x="329" y="576"/>
      <point x="372" y="564" type="curve"/>
      <point x="374" y="512" type="line"/>
      <point x="362" y="515" type="line"/>
      <point x="298" y="529"/>
      <point x="228" y="583"/>
      <point x="228" y="656" type="curve" smooth="yes"/>
      <point x="228" y="733"/>
      <point x="290" y="784"/>
      <point x="376" y="784" type="curve" smooth="yes"/>
      <point x="399" y="784"/>
      <point x="424" y="779"/>
      <point x="440" y="773" type="curve"/>
    </contour>
  </outline>
</glyph>
<glyph name="grEight" format="1">
  <advance width="578"/>
  <unicode hex="0A6E"/>
  <outline>
    <contour>
      <point x="508" y="458" type="line"/>
      <point x="101" y="458" type="line"/>
      <point x="101" y="403" type="line"/>
      <point x="508" y="403" type="line" smooth="yes"/>
    </contour>
    <contour>
      <point x="95" y="552" type="line"/>
      <point x="74" y="525"/>
      <point x="50" y="491"/>
      <point x="50" y="458" type="curve" smooth="yes"/>
      <point x="50" y="425"/>
      <point x="70" y="403"/>
      <point x="101" y="403" type="curve" smooth="yes"/>
      <point x="165" y="403" type="line"/>
      <point x="152" y="552" type="line"/>
    </contour>
    <contour>
      <point x="465" y="69"/>
      <point x="414" y="52"/>
      <point x="348" y="52" type="curve" smooth="yes"/>
      <point x="240" y="52"/>
      <point x="188" y="112"/>
      <point x="176" y="267" type="curve" smooth="yes"/>
      <point x="164" y="428" type="line"/>
      <point x="105" y="428" type="line"/>
      <point x="119" y="242" type="line" smooth="yes"/>
      <point x="132" y="65"/>
      <point x="224" y="-5"/>
      <point x="346" y="-5" type="curve" smooth="yes"/>
      <point x="419" y="-5"/>
      <point x="472" y="18"/>
      <point x="507" y="36" type="curve"/>
      <point x="507" y="94" type="line"/>
    </contour>
  </outline>
</glyph>
<glyph name="grNine" format="1">
  <advance width="578"/>
  <unicode hex="0A6F"/>
  <outline>
    <contour>
      <point x="518" y="717" type="line"/>
      <point x="498" y="723"/>
      <point x="477" y="728"/>
      <point x="446" y="728" type="curve" smooth="yes"/>
      <point x="357" y="728"/>
      <point x="271" y="677"/>
      <point x="271" y="569" type="curve" smooth="yes"/>
      <point x="271" y="461"/>
      <point x="374" y="403"/>
      <point x="468" y="403" type="curve"/>
      <point x="508" y="403" type="line"/>
      <point x="508" y="458" type="line"/>
      <point x="450" y="458" type="line" smooth="yes"/>
      <point x="380" y="458"/>
      <point x="335" y="501"/>
      <point x="335" y="569" type="curve" smooth="yes"/>
      <point x="335" y="637"/>
      <point x="385" y="671"/>
      <point x="446" y="671" type="curve" smooth="yes"/>
      <point x="475" y="671"/>
      <point x="498" y="666"/>
      <point x="518" y="660" type="curve"/>
    </contour>
    <contour>
      <point x="508" y="458" type="line"/>
      <point x="101" y="458" type="line"/>
      <point x="101" y="403" type="line"/>
      <point x="508" y="403" type="line" smooth="yes"/>
    </contour>
    <contour>
      <point x="95" y="552" type="line"/>
      <point x="74" y="525"/>
      <point x="50" y="491"/>
      <point x="50" y="458" type="curve" smooth="yes"/>
      <point x="50" y="425"/>
      <point x="70" y="403"/>
      <point x="101" y="403" type="curve" smooth="yes"/>
      <point x="165" y="403" type="line"/>
      <point x="152" y="552" type="line"/>
    </contour>
    <contour>
      <point x="465" y="69"/>
      <point x="414" y="52"/>
      <point x="348" y="52" type="curve" smooth="yes"/>
      <point x="240" y="52"/>
      <point x="188" y="112"/>
      <point x="176" y="267" type="curve" smooth="yes"/>
      <point x="164" y="428" type="line"/>
      <point x="105" y="428" type="line"/>
      <point x="119" y="242" type="line" smooth="yes"/>
      <point x="132" y="65"/>
      <point x="224" y="-5"/>
      <point x="346" y="-5" type="curve" smooth="yes"/>
      <point x="419" y="-5"/>
      <point x="472" y="18"/>
      <point x="507" y="36" type="curve"/>
      <point x="507" y="94" type="line"/>
    </contour>
  </outline>
</glyph>
<glyph name="grTippi" format="1">
  <advance width="0"/>
  <unicode hex="0A70"/>
  <outline>
    <contour>
      <point x="-32" y="687" type="line"/>
      <point x="-15" y="711"/>
      <point x="-2" y="735"/>
      <point x="-2" y="767" type="curve" smooth="yes"/>
      <point x="-2" y="835"/>
      <point x="-50" y="888"/>
      <point x="-130" y="888" type="curve" smooth="yes"/>
      <point x="-210" y="888"/>
      <point x="-258" y="835"/>
      <point x="-258" y="767" type="curve" smooth="yes"/>
      <point x="-258" y="735"/>
      <point x="-245" y="711"/>
      <point x="-228" y="687" type="curve"/>
      <point x="-166" y="687" type="line"/>
      <point x="-184" y="711"/>
      <point x="-196" y="739"/>
      <point x="-196" y="767" type="curve" smooth="yes"/>
      <point x="-196" y="797"/>
      <point x="-172" y="831"/>
      <point x="-130" y="831" type="curve" smooth="yes"/>
      <point x="-88" y="831"/>
      <point x="-64" y="797"/>
      <point x="-64" y="767" type="curve" smooth="yes"/>
      <point x="-64" y="739"/>
      <point x="-76" y="711"/>
      <point x="-94" y="687" type="curve"/>
    </contour>
    <contour>
      <point x="-130" y="635" type="move" name="_top.tippi"/>
    </contour>
  </outline>
</glyph>
<glyph name="grUra" format="1">
  <advance width="597"/>
  <unicode hex="0A73"/>
  <outline>
    <contour>
      <point x="-20" y="580" type="line"/>
      <point x="-20" y="635" type="line"/>
      <point x="617" y="635" type="line"/>
      <point x="617" y="580" type="line"/>
    </contour>
    <contour>
      <point x="544" y="480" type="line"/>
      <point x="544" y="408"/>
      <point x="496" y="353"/>
      <point x="437" y="335" type="curve"/>
      <point x="99" y="335" type="line"/>
      <point x="99" y="370" type="line"/>
      <point x="359" y="370" type="line" smooth="yes"/>
      <point x="453" y="370"/>
      <point x="482" y="422"/>
      <point x="482" y="479" type="curve"/>
      <point x="482" y="586" type="line"/>
      <point x="544" y="586" type="line"/>
    </contour>
    <contour>
      <point x="475" y="345"/>
      <point x="547" y="302"/>
      <point x="547" y="209" type="curve" smooth="yes"/>
      <point x="547" y="122"/>
      <point x="485" y="35"/>
      <point x="338" y="35" type="curve" smooth="yes"/>
      <point x="151" y="35"/>
      <point x="50" y="216"/>
      <point x="50" y="440" type="curve" smooth="yes"/>
      <point x="50" y="670"/>
      <point x="155" y="848"/>
      <point x="329" y="848" type="curve" smooth="yes"/>
      <point x="456" y="848"/>
      <point x="529" y="750"/>
      <point x="543" y="623" type="curve"/>
      <point x="481" y="623" type="line"/>
      <point x="470" y="723"/>
      <point x="416" y="791"/>
      <point x="329" y="791" type="curve" smooth="yes"/>
      <point x="182" y="791"/>
      <point x="114" y="623"/>
      <point x="114" y="440" type="curve" smooth="yes"/>
      <point x="114" y="243"/>
      <point x="189" y="92"/>
      <point x="337" y="92" type="curve" smooth="yes"/>
      <point x="434" y="92"/>
      <point x="483" y="137"/>
      <point x="483" y="212" type="curve" smooth="yes"/>
      <point x="483" y="288"/>
      <point x="425" y="315"/>
      <point x="326" y="315" type="curve" smooth="yes"/>
      <point x="99" y="315" type="line"/>
      <point x="99" y="359" type="line"/>
      <point x="402" y="359" type="line"/>
    </contour>
  </outline>
</glyph>
<glyph name="grEkonkar" format="1">
  <advance width="1150"/>
  <unicode hex="0A74"/>
  <outline>
    <contour>
      <point x="543" y="580" type="line"/>
      <point x="543" y="635" type="line"/>
      <point x="1170" y="635" type="line"/>
      <point x="1170" y="580" type="line"/>
    </contour>
    <contour>
      <point x="1097" y="470" type="line"/>
      <point x="1097" y="388"/>
      <point x="1049" y="338"/>
      <point x="990" y="320" type="curve"/>
      <point x="662" y="320" type="line"/>
      <point x="662" y="355" type="line"/>
      <point x="912" y="355" type="line" smooth="yes"/>
      <point x="1006" y="355"/>
      <point x="1035" y="402"/>
      <point x="1035" y="469" type="curve"/>
      <point x="1035" y="586" type="line"/>
      <point x="1097" y="586" type="line"/>
    </contour>
    <contour>
      <point x="989" y="818"/>
      <point x="1028" y="812"/>
      <point x="1068" y="799" type="curve"/>
      <point x="1046" y="780" type="line"/>
      <point x="1071" y="884"/>
      <point x="1145" y="963"/>
      <point x="1279" y="963" type="curve"/>
      <point x="1293" y="963"/>
      <point x="1311" y="962"/>
      <point x="1325" y="959" type="curve"/>
      <point x="1325" y="901" type="line"/>
      <point x="1311" y="904"/>
      <point x="1293" y="906"/>
      <point x="1279" y="906" type="curve"/>
      <point x="1160" y="906"/>
      <point x="1112" y="835"/>
      <point x="1091" y="734" type="curve"/>
      <point x="1040" y="752"/>
      <point x="986" y="761"/>
      <point x="947" y="761" type="curve" smooth="yes"/>
      <point x="765" y="761"/>
      <point x="677" y="608"/>
      <point x="677" y="410" type="curve" smooth="yes"/>
      <point x="677" y="213"/>
      <point x="750" y="62"/>
      <point x="896" y="62" type="curve" smooth="yes"/>
      <point x="985" y="62"/>
      <point x="1036" y="107"/>
      <point x="1036" y="182" type="curve" smooth="yes"/>
      <point x="1036" y="257"/>
      <point x="978" y="300"/>
      <point x="879" y="300" type="curve" smooth="yes"/>
      <point x="662" y="300" type="line"/>
      <point x="662" y="344" type="line"/>
      <point x="955" y="344" type="line"/>
      <point x="1028" y="330"/>
      <point x="1100" y="271"/>
      <point x="1100" y="179" type="curve" smooth="yes"/>
      <point x="1100" y="87"/>
      <point x="1035" y="5"/>
      <point x="896" y="5" type="curve" smooth="yes"/>
      <point x="711" y="5"/>
      <point x="613" y="186"/>
      <point x="613" y="410" type="curve" smooth="yes"/>
      <point x="613" y="645"/>
      <point x="740" y="818"/>
      <point x="947" y="818" type="curve" smooth="yes"/>
    </contour>
    <contour>
      <point x="401" y="150" type="line" smooth="yes"/>
      <point x="401" y="50"/>
      <point x="441" y="-5"/>
      <point x="548" y="-5" type="curve"/>
      <point x="548" y="52" type="line"/>
      <point x="469" y="52"/>
      <point x="463" y="85"/>
      <point x="463" y="168" type="curve" smooth="yes"/>
      <point x="463" y="435" type="line" smooth="yes"/>
      <point x="463" y="565"/>
      <point x="379" y="640"/>
      <point x="257" y="640" type="curve" smooth="yes"/>
      <point x="145" y="640"/>
      <point x="45" y="566"/>
      <point x="45" y="435" type="curve" smooth="yes"/>
      <point x="45" y="314"/>
      <point x="146" y="240"/>
      <point x="273" y="240" type="curve" smooth="yes"/>
      <point x="320" y="240"/>
      <point x="352" y="245"/>
      <point x="423" y="256" type="curve"/>
      <point x="423" y="314" type="line"/>
      <point x="383" y="305"/>
      <point x="326" y="297"/>
      <point x="273" y="297" type="curve" smooth="yes"/>
      <point x="169" y="297"/>
      <point x="109" y="355"/>
      <point x="109" y="440" type="curve" smooth="yes"/>
      <point x="109" y="525"/>
      <point x="174" y="583"/>
      <point x="257" y="583" type="curve" smooth="yes"/>
      <point x="341" y="583"/>
      <point x="401" y="530"/>
      <point x="401" y="417" type="curve" smooth="yes"/>
    </contour>
  </outline>
</glyph>
<glyph name="doubledanda" format="1">
  <advance width="515"/>
  <outline>
    <contour>
      <point x="415" y="0" type="line"/>
      <point x="415" y="634" type="line"/>
      <point x="353" y="634" type="line"/>
      <point x="353" y="0" type="line"/>
    </contour>
    <contour>
      <point x="207" y="0" type="line"/>
      <point x="207" y="634" type="line"/>
      <point x="145" y="634" type="line"/>
      <point x="145" y="0" type="line"/>
    </contour>
  </outline>
</glyph>
<glyph name="grCA_RAc2" format="1">
  <advance width="566"/>
  <outline>
    <contour>
      <point x="655" y="-209" type="line"/>
      <point x="655" y="-152" type="line"/>
      <point x="453" y="-50" type="line" smooth="yes"/>
      <point x="420" y="-34"/>
      <point x="397" y="-30"/>
      <point x="370" y="-44" type="curve" smooth="yes"/>
      <point x="339" y="-60"/>
      <point x="296" y="-119"/>
      <point x="281" y="-151" type="curve"/>
      <point x="311" y="-184" type="line"/>
      <point x="466" y="-79" type="line"/>
      <point x="466" y="119" type="line"/>
      <point x="404" y="119" type="line"/>
      <point x="404" y="-88" type="line"/>
    </contour>
    <contour>
      <point x="411" y="363" type="line"/>
      <point x="109" y="363" type="line"/>
      <point x="109" y="308" type="line"/>
      <point x="411" y="308" type="line"/>
    </contour>
    <contour>
      <point x="-20" y="580" type="line"/>
      <point x="586" y="580" type="line"/>
      <point x="586" y="635" type="line"/>
      <point x="-20" y="635" type="line"/>
    </contour>
    <contour>
      <point x="404" y="121" type="line" smooth="yes"/>
      <point x="404" y="78"/>
      <point x="387" y="51"/>
      <point x="342" y="51" type="curve" smooth="yes"/>
      <point x="288" y="51"/>
      <point x="249" y="102"/>
      <point x="207" y="196" type="curve" smooth="yes"/>
      <point x="109" y="434" type="line"/>
      <point x="61" y="434" type="line"/>
      <point x="47" y="415"/>
      <point x="22" y="378"/>
      <point x="22" y="349" type="curve" smooth="yes"/>
      <point x="22" y="326"/>
      <point x="37" y="308"/>
      <point x="71" y="308" type="curve" smooth="yes"/>
      <point x="90" y="308" type="line"/>
      <point x="159" y="155" type="line" smooth="yes"/>
      <point x="204" y="55"/>
      <point x="262" y="-6"/>
      <point x="342" y="-6" type="curve" smooth="yes"/>
      <point x="420" y="-6"/>
      <point x="466" y="49"/>
      <point x="466" y="119" type="curve" smooth="yes"/>
      <point x="466" y="619" type="line"/>
      <point x="404" y="619" type="line"/>
    </contour>
    <contour>
      <point x="435" y="635" type="move" name="top.addak"/>
    </contour>
    <contour>
      <point x="435" y="635" type="move" name="top"/>
    </contour>
    <contour>
      <point x="435" y="635" type="move" name="top.bindi"/>
    </contour>
    <contour>
      <point x="435" y="635" type="move" name="top.tippi"/>
    </contour>
    <contour>
      <point x="293" y="-142" type="move" name="bottom"/>
    </contour>
  </outline>
</glyph>
<glyph name="grGA_RAc2" format="1">
  <advance width="705"/>
  <outline>
    <contour>
      <point x="-20" y="635" type="line"/>
      <point x="-20" y="580" type="line"/>
      <point x="558" y="580" type="line"/>
      <point x="558" y="0" type="line"/>
      <point x="620" y="0" type="line"/>
      <point x="620" y="580" type="line"/>
      <point x="740" y="580" type="line"/>
      <point x="740" y="635" type="line"/>
    </contour>
    <contour>
      <point x="307" y="121" type="line" smooth="yes"/>
      <point x="307" y="64"/>
      <point x="275" y="57"/>
      <point x="249" y="57" type="curve" smooth="yes"/>
      <point x="159" y="57"/>
      <point x="105" y="137"/>
      <point x="105" y="216" type="curve" smooth="yes"/>
      <point x="105" y="295"/>
      <point x="149" y="335"/>
      <point x="248" y="335" type="curve" smooth="yes"/>
      <point x="269" y="335"/>
      <point x="302" y="332"/>
      <point x="309" y="330" type="curve"/>
      <point x="309" y="385" type="line"/>
      <point x="303" y="387"/>
      <point x="268" y="390"/>
      <point x="243" y="390" type="curve" smooth="yes"/>
      <point x="115" y="390"/>
      <point x="40" y="331"/>
      <point x="40" y="216" type="curve" smooth="yes"/>
      <point x="40" y="101"/>
      <point x="135" y="0"/>
      <point x="249" y="0" type="curve" smooth="yes"/>
      <point x="322" y="0"/>
      <point x="369" y="40"/>
      <point x="369" y="127" type="curve" smooth="yes"/>
      <point x="369" y="600" type="line"/>
      <point x="307" y="600" type="line"/>
    </contour>
    <component base="grRAc2" xOffset="720" yOffset="30"/>
    <contour>
      <point x="589" y="635" type="move" name="top.addak"/>
    </contour>
    <contour>
      <point x="589" y="635" type="move" name="top"/>
    </contour>
    <contour>
      <point x="589" y="635" type="move" name="top.bindi"/>
    </contour>
    <contour>
      <point x="589" y="635" type="move" name="top.tippi"/>
    </contour>
    <contour>
      <point x="436" y="-142" type="move" name="bottom"/>
    </contour>
  </outline>
</glyph>
<glyph name="grKHA_RAc2" format="1">
  <advance width="614"/>
  <outline>
    <contour>
      <point x="88" y="580"/>
      <point x="125" y="541"/>
      <point x="125" y="487" type="curve" smooth="yes"/>
      <point x="125" y="440"/>
      <point x="104" y="396"/>
      <point x="60" y="354" type="curve"/>
      <point x="75" y="230"/>
      <point x="159" y="143"/>
      <point x="284" y="143" type="curve" smooth="yes"/>
      <point x="362" y="143"/>
      <point x="419" y="175"/>
      <point x="452" y="215" type="curve"/>
      <point x="452" y="356" type="line"/>
      <point x="452" y="272"/>
      <point x="392" y="200"/>
      <point x="284" y="200" type="curve" smooth="yes"/>
      <point x="190" y="200"/>
      <point x="132" y="270"/>
      <point x="126" y="342" type="curve"/>
      <point x="171" y="393"/>
      <point x="189" y="430"/>
      <point x="189" y="487" type="curve" smooth="yes"/>
      <point x="189" y="552"/>
      <point x="148" y="635"/>
      <point x="52" y="635" type="curve" smooth="yes"/>
      <point x="-20" y="635" type="line"/>
      <point x="-20" y="580" type="line"/>
      <point x="43" y="580" type="line" smooth="yes"/>
    </contour>
    <contour>
      <point x="452" y="590" type="line"/>
      <point x="452" y="0" type="line"/>
      <point x="514" y="0" type="line"/>
      <point x="514" y="590" type="line"/>
    </contour>
    <contour>
      <point x="634" y="580" type="line"/>
      <point x="634" y="635" type="line"/>
      <point x="452" y="635" type="line"/>
      <point x="452" y="580" type="line"/>
    </contour>
    <contour>
      <point x="465" y="435" type="line"/>
      <point x="136" y="435" type="line"/>
      <point x="136" y="380" type="line"/>
      <point x="465" y="380" type="line"/>
    </contour>
    <component base="grRAc2" xOffset="614" yOffset="30"/>
    <contour>
      <point x="483" y="635" type="move" name="top.addak"/>
    </contour>
    <contour>
      <point x="483" y="635" type="move" name="top"/>
    </contour>
    <contour>
      <point x="483" y="635" type="move" name="top.bindi"/>
    </contour>
    <contour>
      <point x="483" y="635" type="move" name="top.tippi"/>
    </contour>
    <contour>
      <point x="330" y="-141" type="move" name="bottom"/>
    </contour>
  </outline>
</glyph>
<glyph name="grNNA_RAc2" format="1">
  <advance width="552"/>
  <outline>
    <contour>
      <point x="315" y="433"/>
      <point x="253" y="475"/>
      <point x="179" y="597" type="curve"/>
      <point x="113" y="593" type="line"/>
      <point x="199" y="440"/>
      <point x="279" y="381"/>
      <point x="465" y="355" type="curve" smooth="yes"/>
      <point x="522" y="347" type="line"/>
      <point x="522" y="404" type="line"/>
      <point x="465" y="412" type="line" smooth="yes"/>
    </contour>
    <contour>
      <point x="310" y="313" type="line"/>
      <point x="364" y="273" type="line"/>
      <point x="413" y="408" type="line"/>
      <point x="352" y="427" type="line"/>
    </contour>
    <contour>
      <point x="339" y="329" type="line"/>
      <point x="171" y="353"/>
      <point x="40" y="266"/>
      <point x="40" y="184" type="curve" smooth="yes"/>
      <point x="40" y="95"/>
      <point x="139" y="-10"/>
      <point x="300" y="-10" type="curve" smooth="yes"/>
      <point x="406" y="-10"/>
      <point x="479" y="25"/>
      <point x="522" y="53" type="curve"/>
      <point x="522" y="115" type="line"/>
      <point x="473" y="81"/>
      <point x="406" y="47"/>
      <point x="300" y="47" type="curve" smooth="yes"/>
      <point x="178" y="47"/>
      <point x="104" y="114"/>
      <point x="104" y="184" type="curve" smooth="yes"/>
      <point x="104" y="248"/>
      <point x="223" y="298"/>
      <point x="364" y="273" type="curve"/>
    </contour>
    <contour>
      <point x="572" y="580" type="line"/>
      <point x="572" y="635" type="line"/>
      <point x="-20" y="635" type="line"/>
      <point x="-20" y="580" type="line"/>
    </contour>
    <component base="grRAc2" xOffset="442" yOffset="20"/>
    <contour>
      <point x="341" y="635" type="move" name="top.addak"/>
    </contour>
    <contour>
      <point x="341" y="635" type="move" name="top"/>
    </contour>
    <contour>
      <point x="341" y="635" type="move" name="top.bindi"/>
    </contour>
    <contour>
      <point x="341" y="635" type="move" name="top.tippi"/>
    </contour>
    <contour>
      <point x="291" y="-163" type="move" name="bottom"/>
    </contour>
  </outline>
</glyph>
<glyph name="grNYA_RAc2" format="1">
  <advance width="565"/>
  <outline>
    <contour>
      <point x="465" y="580" type="line"/>
      <point x="585" y="580" type="line"/>
      <point x="585" y="635" type="line"/>
      <point x="-20" y="635" type="line"/>
      <point x="-20" y="580" type="line"/>
      <point x="403" y="580" type="line"/>
      <point x="403" y="430" type="line"/>
      <point x="261" y="430" type="line" smooth="yes"/>
      <point x="134" y="430"/>
      <point x="80" y="375"/>
      <point x="80" y="305" type="curve" smooth="yes"/>
      <point x="80" y="236"/>
      <point x="135" y="180"/>
      <point x="262" y="180" type="curve" smooth="yes"/>
      <point x="455" y="180" type="line"/>
      <point x="455" y="235" type="line"/>
      <point x="284" y="235" type="line" smooth="yes"/>
      <point x="181" y="235"/>
      <point x="144" y="255"/>
      <point x="144" y="305" type="curve" smooth="yes"/>
      <point x="144" y="355"/>
      <point x="177" y="375"/>
      <point x="273" y="375" type="curve" smooth="yes"/>
      <point x="465" y="375" type="line"/>
    </contour>
    <contour>
      <point x="455" y="50" type="line"/>
      <point x="335" y="50" type="line" smooth="yes"/>
      <point x="252" y="50"/>
      <point x="223" y="78"/>
      <point x="223" y="120" type="curve" smooth="yes"/>
      <point x="223" y="162"/>
      <point x="258" y="179"/>
      <point x="307" y="180" type="curve"/>
      <point x="307" y="232" type="line"/>
      <point x="223" y="232"/>
      <point x="159" y="191"/>
      <point x="159" y="120" type="curve" smooth="yes"/>
      <point x="159" y="44"/>
      <point x="217" y="-5"/>
      <point x="335" y="-5" type="curve" smooth="yes"/>
      <point x="455" y="-5" type="line"/>
    </contour>
    <contour>
      <point x="90" y="517" type="line" smooth="yes"/>
      <point x="90" y="422"/>
      <point x="177" y="375"/>
      <point x="256" y="375" type="curve"/>
      <point x="256" y="430" type="line"/>
      <point x="183" y="430"/>
      <point x="152" y="465"/>
      <point x="152" y="516" type="curve" smooth="yes"/>
      <point x="152" y="589" type="line"/>
      <point x="90" y="589" type="line"/>
    </contour>
    <component base="grRAc2" xOffset="555" yOffset="20"/>
    <contour>
      <point x="434" y="635" type="move" name="top.addak"/>
    </contour>
    <contour>
      <point x="434" y="635" type="move" name="top"/>
    </contour>
    <contour>
      <point x="434" y="635" type="move" name="top.bindi"/>
    </contour>
    <contour>
      <point x="434" y="635" type="move" name="top.tippi"/>
    </contour>
    <contour>
      <point x="298" y="-142" type="move" name="bottom"/>
    </contour>
  </outline>
</glyph>
<glyph name="grPA_RAc2" format="1">
  <advance width="588"/>
  <outline>
    <contour>
      <point x="88" y="580"/>
      <point x="125" y="541"/>
      <point x="125" y="487" type="curve" smooth="yes"/>
      <point x="125" y="442"/>
      <point x="104" y="396"/>
      <point x="60" y="354" type="curve"/>
      <point x="75" y="230"/>
      <point x="157" y="143"/>
      <point x="278" y="143" type="curve" smooth="yes"/>
      <point x="348" y="143"/>
      <point x="403" y="173"/>
      <point x="426" y="207" type="curve"/>
      <point x="426" y="339" type="line"/>
      <point x="426" y="258"/>
      <point x="376" y="200"/>
      <point x="278" y="200" type="curve" smooth="yes"/>
      <point x="188" y="200"/>
      <point x="132" y="270"/>
      <point x="126" y="342" type="curve"/>
      <point x="171" y="393"/>
      <point x="189" y="430"/>
      <point x="189" y="487" type="curve" smooth="yes"/>
      <point x="189" y="546"/>
      <point x="148" y="635"/>
      <point x="52" y="635" type="curve" smooth="yes"/>
      <point x="-20" y="635" type="line"/>
      <point x="-20" y="580" type="line"/>
      <point x="43" y="580" type="line" smooth="yes"/>
    </contour>
    <contour>
      <point x="426" y="590" type="line"/>
      <point x="426" y="0" type="line"/>
      <point x="488" y="0" type="line"/>
      <point x="488" y="590" type="line"/>
    </contour>
    <contour>
      <point x="608" y="635" type="line"/>
      <point x="426" y="635" type="line"/>
      <point x="426" y="580" type="line"/>
      <point x="608" y="580" type="line"/>
    </contour>
    <component base="grRAc2" xOffset="588" yOffset="30"/>
    <contour>
      <point x="457" y="635" type="move" name="top.addak"/>
    </contour>
    <contour>
      <point x="457" y="635" type="move" name="top"/>
    </contour>
    <contour>
      <point x="457" y="635" type="move" name="top.bindi"/>
    </contour>
    <contour>
      <point x="457" y="635" type="move" name="top.tippi"/>
    </contour>
    <contour>
      <point x="304" y="-142" type="move" name="bottom"/>
    </contour>
  </outline>
</glyph>
<glyph name="grPHA_RAc2" format="1">
  <advance width="543"/>
  <outline>
    <contour>
      <point x="392" y="580" type="line"/>
      <point x="392" y="466" type="line"/>
      <point x="275" y="466" type="line" smooth="yes"/>
      <point x="148" y="466"/>
      <point x="40" y="401"/>
      <point x="40" y="268" type="curve" smooth="yes"/>
      <point x="40" y="120"/>
      <point x="177" y="12"/>
      <point x="319" y="12" type="curve" smooth="yes"/>
      <point x="429" y="12"/>
      <point x="503" y="72"/>
      <point x="503" y="155" type="curve" smooth="yes"/>
      <point x="503" y="245"/>
      <point x="435" y="295"/>
      <point x="344" y="295" type="curve" smooth="yes"/>
      <point x="242" y="295"/>
      <point x="161" y="234"/>
      <point x="134" y="98" type="curve"/>
      <point x="187" y="67" type="line"/>
      <point x="203" y="178"/>
      <point x="263" y="239"/>
      <point x="344" y="239" type="curve" smooth="yes"/>
      <point x="401" y="239"/>
      <point x="441" y="206"/>
      <point x="441" y="159" type="curve" smooth="yes"/>
      <point x="441" y="108"/>
      <point x="400" y="68"/>
      <point x="319" y="68" type="curve" smooth="yes"/>
      <point x="261" y="68"/>
      <point x="210" y="90"/>
      <point x="171" y="126" type="curve" smooth="yes"/>
      <point x="131" y="162"/>
      <point x="104" y="213"/>
      <point x="104" y="268" type="curve" smooth="yes"/>
      <point x="104" y="381"/>
      <point x="190" y="411"/>
      <point x="296" y="411" type="curve" smooth="yes"/>
      <point x="454" y="411" type="line"/>
      <point x="454" y="580" type="line"/>
      <point x="563" y="580" type="line"/>
      <point x="563" y="635" type="line"/>
      <point x="-20" y="635" type="line"/>
      <point x="-20" y="580" type="line"/>
    </contour>
    <component base="grRAc2" xOffset="453" yOffset="39"/>
    <contour>
      <point x="423" y="635" type="move" name="top.addak"/>
    </contour>
    <contour>
      <point x="423" y="635" type="move" name="top"/>
    </contour>
    <contour>
      <point x="423" y="635" type="move" name="top.bindi"/>
    </contour>
    <contour>
      <point x="423" y="635" type="move" name="top.tippi"/>
    </contour>
    <contour>
      <point x="312" y="-142" type="move" name="bottom"/>
    </contour>
  </outline>
</glyph>
<glyph name="grRAc2" format="1">
  <advance width="0"/>
  <outline>
    <contour>
      <point x="89" y="-249" type="line"/>
      <point x="89" y="-192" type="line"/>
      <point x="-113" y="-90" type="line" smooth="yes"/>
      <point x="-146" y="-74"/>
      <point x="-169" y="-70"/>
      <point x="-196" y="-84" type="curve" smooth="yes"/>
      <point x="-227" y="-100"/>
      <point x="-270" y="-159"/>
      <point x="-285" y="-191" type="curve"/>
      <point x="-255" y="-224" type="line"/>
      <point x="-100" y="-119" type="line"/>
      <point x="-100" y="9" type="line"/>
      <point x="-162" y="9" type="line"/>
      <point x="-162" y="-128" type="line"/>
    </contour>
  </outline>
</glyph>
<glyph name="grTTA_RAc2" format="1">
  <advance width="514"/>
  <outline>
    <contour>
      <point x="414" y="580" type="line"/>
      <point x="534" y="580" type="line"/>
      <point x="534" y="635" type="line"/>
      <point x="-20" y="635" type="line"/>
      <point x="-20" y="580" type="line"/>
      <point x="352" y="580" type="line"/>
      <point x="352" y="436" type="line"/>
      <point x="274" y="436" type="line" smooth="yes"/>
      <point x="133" y="436"/>
      <point x="45" y="360"/>
      <point x="45" y="228" type="curve" smooth="yes"/>
      <point x="45" y="96"/>
      <point x="144" y="0"/>
      <point x="307" y="0" type="curve" smooth="yes"/>
      <point x="370" y="0"/>
      <point x="426" y="16"/>
      <point x="454" y="31" type="curve"/>
      <point x="454" y="93" type="line"/>
      <point x="423" y="74"/>
      <point x="365" y="57"/>
      <point x="308" y="57" type="curve" smooth="yes"/>
      <point x="189" y="57"/>
      <point x="109" y="128"/>
      <point x="109" y="228" type="curve" smooth="yes"/>
      <point x="109" y="328"/>
      <point x="178" y="379"/>
      <point x="295" y="379" type="curve" smooth="yes"/>
      <point x="414" y="379" type="line"/>
    </contour>
    <component base="grRAc2" xOffset="554" yOffset="31"/>
    <contour>
      <point x="383" y="635" type="move" name="top.addak"/>
    </contour>
    <contour>
      <point x="383" y="635" type="move" name="top"/>
    </contour>
    <contour>
      <point x="383" y="635" type="move" name="top.bindi"/>
    </contour>
    <contour>
      <point x="383" y="635" type="move" name="top.tippi"/>
    </contour>
    <contour>
      <point x="282" y="-176" type="move" name="bottom"/>
    </contour>
  </outline>
</glyph>
<glyph name="grVAc2" format="1">
  <advance width="0"/>
  <outline>
    <contour>
      <point x="-100" y="2" type="line"/>
      <point x="-225" y="2" type="line" smooth="yes"/>
      <point x="-295" y="2"/>
      <point x="-329" y="-29"/>
      <point x="-329" y="-78" type="curve" smooth="yes"/>
      <point x="-329" y="-127"/>
      <point x="-290" y="-156"/>
      <point x="-220" y="-156" type="curve" smooth="yes"/>
      <point x="-100" y="-156" type="line"/>
      <point x="-100" y="-101" type="line"/>
      <point x="-225" y="-101" type="line" smooth="yes"/>
      <point x="-255" y="-101"/>
      <point x="-267" y="-93"/>
      <point x="-267" y="-77" type="curve" smooth="yes"/>
      <point x="-267" y="-61"/>
      <point x="-255" y="-53"/>
      <point x="-225" y="-53" type="curve" smooth="yes"/>
      <point x="-100" y="-53" type="line"/>
    </contour>
    <contour>
      <point x="-165" y="-111" type="line"/>
      <point x="-235" y="-115"/>
      <point x="-269" y="-136"/>
      <point x="-269" y="-181" type="curve" smooth="yes"/>
      <point x="-269" y="-230"/>
      <point x="-230" y="-259"/>
      <point x="-160" y="-259" type="curve" smooth="yes"/>
      <point x="-100" y="-259" type="line"/>
      <point x="-100" y="-204" type="line"/>
      <point x="-165" y="-204" type="line" smooth="yes"/>
      <point x="-195" y="-204"/>
      <point x="-207" y="-196"/>
      <point x="-207" y="-180" type="curve" smooth="yes"/>
      <point x="-207" y="-164"/>
      <point x="-195" y="-156"/>
      <point x="-165" y="-156" type="curve"/>
    </contour>
    <contour>
      <point x="-100" y="0" type="move" name="_bottom.VAc2"/>
    </contour>
  </outline>
</glyph>
<glyph name="grYAc2" format="1">
  <advance width="626"/>
  <outline>
    <contour>
      <point x="10" y="262" type="line"/>
      <point x="47" y="176"/>
      <point x="114" y="119"/>
      <point x="192" y="119" type="curve" smooth="yes"/>
      <point x="261" y="119"/>
      <point x="320" y="156"/>
      <point x="320" y="256" type="curve" smooth="yes"/>
      <point x="320" y="395" type="line"/>
      <point x="258" y="395" type="line"/>
      <point x="258" y="256" type="line" smooth="yes"/>
      <point x="258" y="197"/>
      <point x="237" y="176"/>
      <point x="192" y="176" type="curve" smooth="yes"/>
      <point x="138" y="176"/>
      <point x="93" y="221"/>
      <point x="75" y="262" type="curve"/>
    </contour>
    <contour>
      <point x="513" y="360" type="line"/>
      <point x="513" y="415" type="line"/>
      <point x="258" y="415" type="line"/>
      <point x="258" y="360" type="line"/>
    </contour>
    <contour>
      <point x="464" y="590" type="line"/>
      <point x="464" y="0" type="line"/>
      <point x="526" y="0" type="line"/>
      <point x="526" y="590" type="line"/>
    </contour>
    <contour>
      <point x="646" y="635" type="line"/>
      <point x="-20" y="635" type="line"/>
      <point x="-20" y="580" type="line"/>
      <point x="646" y="580" type="line"/>
    </contour>
  </outline>
</glyph>
<glyph name="grmII_Bindi" format="1">
  <advance width="262"/>
  <outline>
    <contour>
      <point x="-20" y="635" type="line"/>
      <point x="-20" y="580" type="line"/>
      <point x="100" y="580" type="line"/>
      <point x="100" y="0" type="line"/>
      <point x="162" y="0" type="line"/>
      <point x="162" y="580" type="line"/>
      <point x="282" y="580" type="line"/>
      <point x="282" y="635" type="line"/>
    </contour>
    <contour>
      <point x="162" y="625" type="line"/>
      <point x="162" y="726" type="line" smooth="yes"/>
      <point x="162" y="841"/>
      <point x="83" y="888"/>
      <point x="-2" y="888" type="curve" smooth="yes"/>
      <point x="-86" y="888"/>
      <point x="-162" y="841"/>
      <point x="-162" y="726" type="curve" smooth="yes"/>
      <point x="-162" y="678" type="line"/>
      <point x="-100" y="678" type="line"/>
      <point x="-100" y="725" type="line" smooth="yes"/>
      <point x="-100" y="798"/>
      <point x="-58" y="831"/>
      <point x="-2" y="831" type="curve" smooth="yes"/>
      <point x="54" y="831"/>
      <point x="100" y="797"/>
      <point x="100" y="725" type="curve" smooth="yes"/>
      <point x="100" y="625" type="line"/>
    </contour>
    <contour>
      <point x="220" y="747"/>
      <point x="239" y="728"/>
      <point x="266" y="728" type="curve" smooth="yes"/>
      <point x="293" y="728"/>
      <point x="314" y="747"/>
      <point x="314" y="774" type="curve" smooth="yes"/>
      <point x="314" y="800"/>
      <point x="293" y="821"/>
      <point x="266" y="821" type="curve" smooth="yes"/>
      <point x="239" y="821"/>
      <point x="220" y="800"/>
      <point x="220" y="774" type="curve" smooth="yes"/>
    </contour>
  </outline>
</glyph>
<glyph name="grmOO.alt" format="1">
  <advance width="0"/>
  <outline>
    <contour>
      <point x="-100" y="689" type="line"/>
      <point x="-100" y="745" type="line" smooth="yes"/>
      <point x="-100" y="830"/>
      <point x="-146" y="868"/>
      <point x="-203" y="868" type="curve" smooth="yes"/>
      <point x="-259" y="868"/>
      <point x="-293" y="802"/>
      <point x="-344" y="802" type="curve" smooth="yes"/>
      <point x="-384" y="802"/>
      <point x="-399" y="835"/>
      <point x="-389" y="888" type="curve"/>
      <point x="-451" y="888" type="line"/>
      <point x="-464" y="811"/>
      <point x="-421" y="747"/>
      <point x="-344" y="747" type="curve" smooth="yes"/>
      <point x="-268" y="747"/>
      <point x="-247" y="813"/>
      <point x="-203" y="813" type="curve" smooth="yes"/>
      <point x="-168" y="813"/>
      <point x="-162" y="787"/>
      <point x="-162" y="745" type="curve" smooth="yes"/>
      <point x="-162" y="689" type="line"/>
    </contour>
    <contour>
      <point x="-131" y="635" type="move" name="_top"/>
    </contour>
  </outline>
</glyph>
